# xmcd CD database file
#
# Track frame offsets:
#	150
#	14033
#	25450
#	36196
#	47327
#	56911
#	69652
#	82637
#	95729
#	107361
#	119093
#	129603
#	139918
#	150127
#	159947
#	171111
#	181608
#	193248
#
# Disc length: 2729 seconds
#
# Revision: 0
# Processed by: cddbd v1.5.1PL2 Copyright (c) Steve Scherf et al.
# Submitted via: CdAid (MTCDDB.DLL V2003.12.21)
#
DISCID=ec0aa712
DTITLE=Patsy Cline - Patsy Cline Collection
DYEAR=1998
DGENRE=Country
TTITLE0=A Church, A Courtroom and Then Goodbye
TTITLE1=Crazy Dreams
TTITLE2=Honky Tonk Merry Go Round
TTITLE3=I Can't Forget
TTITLE4=I'm Moving On
TTITLE5=Just A Closer Walk With Thee
TTITLE6=Life's Railway To Heaven
TTITLE7=If I Could See The World
TTITLE8=Lonely Street
TTITLE9=Poor Man's Roses or A Rich Man's Gold
TTITLE10=Loversick Blues
TTITLE11=Walkin' Dreams
TTITLE12=Three Cigarettes In An Ashtray
TTITLE13=I'm Blue Again
TTITLE14=Stranger In My Arms
TTITLE15=I Love You Honey
TTITLE16=Let The Teardrops Fall
TTITLE17=Walking After Midnight
EXTD=ID3G:  17 YEAR: 1998
EXTT0=
EXTT1=
EXTT2=
EXTT3=
EXTT4=
EXTT5=
EXTT6=
EXTT7=
EXTT8=
EXTT9=
EXTT10=
EXTT11=
EXTT12=
EXTT13=
EXTT14=
EXTT15=
EXTT16=
EXTT17=
PLAYORDER=
